<svg width="260" height="261" viewBox="0 0 260 261" fill="none" xmlns="http://www.w3.org/2000/svg">
<path d="M69.8123 58.3116L67.986 59.4948L78.3191 66.1454L80.0379 65.0318L78.178 52.8917L76.3786 54.0575L76.8614 56.8331L72.1616 59.878L69.8123 58.3116ZM77.158 58.5856L78.061 63.8343L73.6264 60.8736L77.158 58.5856Z" fill="#902DAF"/>
<path d="M66.8529 77.3716C67.6206 76.4913 67.9712 75.4808 67.7979 74.438L68.642 75.1742L69.8935 73.7392L61.115 66.0832L59.8004 67.5905L62.9235 70.3143C61.8805 70.3175 60.9721 70.7991 60.257 71.6191C58.6165 73.5002 58.7094 76.0226 60.711 77.7684C62.7007 79.5036 65.2124 79.2527 66.8529 77.3716ZM61.6945 72.5755C62.641 71.4903 64.1504 71.3418 65.3804 72.4145C66.6103 73.4872 66.6685 75.0028 65.722 76.088C64.7755 77.1733 63.2766 77.3097 62.0466 76.237C60.8167 75.1643 60.748 73.6608 61.6945 72.5755Z" fill="#902DAF"/>
<path d="M58.906 85.895L59.9571 86.5677L60.9835 84.964L53.7871 80.3584L52.709 82.0429L56.1994 84.2767C57.6683 85.2168 57.9055 86.5084 57.0861 87.7887C57.0085 87.91 56.9174 88.0226 56.7956 88.1536L58.3993 89.18C59.1669 87.9806 59.3502 86.8631 58.906 85.895Z" fill="#902DAF"/>
<path d="M46.2588 93.81C45.1586 96.2274 46.03 98.716 48.3601 99.7764C50.6901 100.837 53.1244 99.8529 54.2246 97.4355C55.3116 95.0472 54.4614 92.5508 52.1313 91.4903C49.8013 90.4298 47.3458 91.4218 46.2588 93.81ZM47.817 94.5192C48.4136 93.2086 49.8108 92.6491 51.2962 93.3252C52.7816 94.0012 53.2775 95.4223 52.681 96.7329C52.0778 98.0581 50.6806 98.6176 49.1952 97.9415C47.7098 97.2655 47.2139 95.8444 47.817 94.5192Z" fill="#902DAF"/>
<path d="M51.7755 107.801C51.556 108.52 51.9221 109.184 52.5954 109.389C53.2229 109.581 53.8561 109.205 54.071 108.502C54.2859 107.798 53.9397 107.123 53.297 106.927C52.6543 106.731 51.9904 107.097 51.7755 107.801ZM39.7559 102.074C39.2 103.895 40.0194 105.266 41.8098 105.813L50.1346 108.354L50.7185 106.441L42.3479 103.886C41.4756 103.619 41.1686 103.091 41.3835 102.387C41.5143 101.958 41.7429 101.593 42.0459 101.368L40.7909 100.382C40.3187 100.723 39.9708 101.37 39.7559 102.074Z" fill="#902DAF"/>
<path d="M42.9903 121.695C45.6259 122.135 47.6465 120.623 48.0576 118.161C48.4766 115.652 46.9858 113.505 44.4766 113.086C41.9673 112.667 39.8467 114.194 39.375 117.019C39.1326 118.471 39.4084 119.734 40.1814 120.642L41.5732 119.787C41.0578 119.085 40.8818 118.293 41.04 117.346C41.285 115.878 42.2454 114.984 43.5159 114.953L42.4117 121.566C42.5984 121.613 42.8325 121.668 42.9903 121.695ZM46.4794 117.897C46.2633 119.192 45.2714 119.983 44.0299 119.938L44.8284 115.156C46.0277 115.551 46.6929 116.619 46.4794 117.897Z" fill="#902DAF"/>
<path d="M38.2449 131.512C38.2252 133.176 38.9293 134.512 40.2015 135.184L41.1156 133.658C40.3058 133.137 39.9469 132.364 39.957 131.516C39.9745 130.045 40.9957 128.937 42.6596 128.956C44.3075 128.976 45.3181 130.108 45.3006 131.58C45.2906 132.428 44.9135 133.191 44.0914 133.694L44.9691 135.24C46.2728 134.6 46.9766 133.28 46.9963 131.616C47.0285 128.912 45.2434 126.971 42.6836 126.941C40.1238 126.91 38.2771 128.808 38.2449 131.512Z" fill="#902DAF"/>
<path d="M41.3114 145.442C41.0355 145.171 40.8746 144.788 40.8229 144.375C40.7275 143.613 41.1203 143.144 41.9458 143.041L45.9783 142.536L46.2627 144.806L47.8503 144.607L47.5659 142.337L49.5027 142.094L49.2541 140.11L47.3173 140.352L47.1422 138.955L45.5547 139.154L45.7297 140.551L41.6496 141.062C39.7762 141.297 38.9252 142.484 39.1579 144.342C39.2474 145.056 39.5274 145.747 39.9681 146.175L41.3114 145.442Z" fill="#902DAF"/>
<path d="M53.6525 164.341L49.6326 165.923C48.0395 166.549 46.8898 165.987 46.3801 164.692C45.9172 163.516 46.3326 162.562 47.7768 161.993L52.0647 160.306L51.3324 158.445L46.7913 160.232C44.3943 161.175 43.8225 162.999 44.6252 165.039C45.0294 166.066 45.7857 166.852 46.7496 167.16L45.7371 167.559L46.4344 169.33L54.3849 166.202L53.6525 164.341Z" fill="#902DAF"/>
<path d="M59.7084 175.622C59.0609 174.555 58.1656 173.882 57.155 173.728L58.0988 173.155L57.1108 171.528L49.807 175.961L50.8448 177.671L54.5377 175.429C56.0012 174.541 57.2379 174.913 57.9768 176.131C58.641 177.225 58.4021 178.25 57.1027 179.038L53.1362 181.446L54.174 183.156L58.3593 180.615C60.5614 179.278 60.7711 177.373 59.7084 175.622Z" fill="#902DAF"/>
<path d="M71.6841 186.004L68.3772 188.882C68.5274 187.86 68.1643 186.882 67.4395 186.05C65.8113 184.179 63.3119 183.915 61.3085 185.659C59.305 187.402 59.2096 189.925 60.8378 191.796C61.6046 192.677 62.5576 193.162 63.6143 193.133L62.7815 193.858L64.042 195.307L72.9972 187.512L71.6841 186.004ZM62.2867 190.853C61.3413 189.766 61.401 188.251 62.632 187.179C63.8631 186.108 65.3723 186.258 66.3177 187.344C67.2631 188.43 67.2034 189.946 65.9724 191.017C64.7414 192.089 63.2321 191.939 62.2867 190.853Z" fill="#902DAF"/>
<path d="M78.255 202.175C79.9551 200.114 79.6576 197.608 77.732 196.02C75.7694 194.401 73.1647 194.617 71.546 196.58C69.9273 198.543 70.1885 201.143 72.398 202.965C73.5336 203.902 74.7647 204.295 75.9375 204.08L75.8944 202.448C75.0283 202.542 74.2547 202.298 73.5141 201.687C72.3661 200.741 72.0728 199.462 72.6817 198.346L77.8537 202.612C77.9882 202.474 78.1532 202.299 78.255 202.175ZM76.714 197.254C77.7262 198.089 77.9149 199.344 77.2544 200.396L73.5144 197.312C74.4565 196.471 75.7142 196.43 76.714 197.254Z" fill="#902DAF"/>
<path d="M86.4616 203.815L87.1112 202.749L85.4855 201.758L81.0382 209.053L82.746 210.094L84.9029 206.556C85.8107 205.067 87.0968 204.801 88.3946 205.593C88.5176 205.667 88.6322 205.756 88.7659 205.875L89.7569 204.249C88.541 203.508 87.4198 203.349 86.4616 203.815Z" fill="#902DAF"/>
<path d="M100.117 218.378L104.814 219.759C108.299 220.782 111.31 219.332 112.257 216.109C113.204 212.885 111.456 210.037 107.972 209.013L103.274 207.633L100.117 218.378ZM102.609 217.276L104.774 209.908L107.383 210.674C109.778 211.378 110.9 213.292 110.246 215.518C109.592 217.744 107.613 218.747 105.218 218.043L102.609 217.276Z" fill="#4C6FFF"/>
<path d="M123.065 211.849L118.479 211.398L117.382 222.544L119.452 222.748L119.769 219.531L122.284 219.779C125.214 220.067 127.178 218.733 127.42 216.281C127.663 213.813 125.995 212.137 123.065 211.849ZM122.361 218.018L119.941 217.78L120.377 213.353L122.797 213.591C124.612 213.77 125.472 214.674 125.334 216.076C125.196 217.477 124.176 218.196 122.361 218.018Z" fill="#4C6FFF"/>
<path d="M142.454 222.686L144.623 222.503L138.646 211.767L136.605 211.938L132.521 223.521L134.658 223.342L135.541 220.666L141.121 220.197L142.454 222.686ZM136.105 218.981L137.784 213.926L140.299 218.628L136.105 218.981Z" fill="#4C6FFF"/>
<path d="M150.722 221.21L155.439 219.897C158.938 218.922 160.726 216.099 159.824 212.862C158.923 209.625 155.933 208.133 152.434 209.107L147.717 210.421L150.722 221.21ZM152.254 218.957L150.193 211.558L152.813 210.829C155.218 210.159 157.183 211.19 157.805 213.424C158.427 215.659 157.279 217.557 154.874 218.227L152.254 218.957Z" fill="#4C6FFF"/>
<path d="M178.974 209.68C181.592 208.073 182.03 206.002 181.093 204.475C178.942 200.97 174.095 205.766 172.848 203.734C172.404 203.011 172.653 202.07 174.126 201.166C174.958 200.656 176.049 200.324 177.218 200.301L176.932 198.581C175.765 198.546 174.381 198.982 173.236 199.685C170.617 201.292 170.193 203.354 171.139 204.895C173.314 208.441 178.159 203.61 179.423 205.669C179.858 206.378 179.557 207.295 178.07 208.207C176.897 208.926 175.416 209.235 174.276 209.09L174.507 210.844C175.717 211.04 177.488 210.592 178.974 209.68Z" fill="#902DAF"/>
<path d="M190.88 200.829C192.895 199.098 193.151 196.474 191.483 194.532C189.815 192.59 187.192 192.459 185.177 194.189C183.187 195.899 182.908 198.522 184.576 200.464C186.244 202.406 188.889 202.538 190.88 200.829ZM189.764 199.53C188.672 200.468 187.169 200.388 186.106 199.15C185.042 197.912 185.19 196.414 186.282 195.476C187.387 194.527 188.89 194.607 189.953 195.846C191.017 197.084 190.869 198.581 189.764 199.53Z" fill="#902DAF"/>
<path d="M201.17 190.314C202.252 189.049 202.568 187.572 202.022 186.242L200.342 186.826C200.63 187.746 200.41 188.569 199.859 189.213C198.902 190.332 197.408 190.528 196.143 189.446C194.891 188.375 194.841 186.858 195.798 185.739C196.349 185.095 197.128 184.751 198.081 184.892L198.398 183.142C196.987 182.798 195.601 183.36 194.519 184.625C192.762 186.68 192.888 189.314 194.833 190.978C196.778 192.642 199.413 192.369 201.17 190.314Z" fill="#902DAF"/>
<path d="M199.066 176.242C199.48 175.614 199.316 174.873 198.728 174.486C198.18 174.125 197.467 174.307 197.062 174.921C196.657 175.536 196.799 176.281 197.36 176.65C197.921 177.02 198.661 176.856 199.066 176.242ZM206.823 182.558L207.923 180.887L200.788 176.188L199.688 177.858L206.823 182.558Z" fill="#902DAF"/>
<path d="M205.406 167.688C204.806 168.926 204.543 170.275 204.778 171.403L206.43 171.333C206.235 170.527 206.38 169.494 206.799 168.631C207.42 167.349 208.346 167.016 209.397 167.526L209.513 167.582L208.549 169.568C207.418 171.901 208.006 173.253 209.288 173.875C210.626 174.524 212.129 173.883 212.981 172.127C213.539 170.975 213.57 169.959 213.117 169.206L214.053 169.66L214.877 167.961L210.371 165.775C208.154 164.7 206.482 165.471 205.406 167.688ZM211.852 171.117C211.405 172.039 210.722 172.383 210.075 172.069C209.513 171.797 209.213 171.242 209.807 170.018L210.707 168.161L211.6 168.594C212.245 169.281 212.278 170.239 211.852 171.117Z" fill="#902DAF"/>
<path d="M217.461 161.039L218.091 159.141L206.825 155.397L206.194 157.295L217.461 161.039Z" fill="#902DAF"/>
<path d="M211.282 133.337L219.585 137.791L210.669 140.8L210.484 143.048L222.047 139.085L222.215 137.044L211.452 131.264L211.282 133.337Z" fill="#902DAF"/>
<path d="M217.443 119.265C214.78 119.487 213.193 121.449 213.4 123.937C213.611 126.472 215.584 128.186 218.12 127.975C220.655 127.764 222.334 125.762 222.097 122.908C221.975 121.441 221.397 120.285 220.424 119.595L219.285 120.766C219.958 121.32 220.323 122.044 220.403 123.001C220.526 124.484 219.815 125.586 218.591 125.929L218.035 119.248C217.843 119.248 217.602 119.252 217.443 119.265ZM214.995 123.804C214.886 122.497 215.653 121.486 216.867 121.224L217.269 126.055C216.01 125.967 215.102 125.096 214.995 123.804Z" fill="#902DAF"/>
<path d="M210.896 109.787C211.202 110.997 211.861 111.903 212.782 112.346L211.712 112.617L212.179 114.463L220.462 112.366L219.971 110.427L215.783 111.487C214.123 111.907 213.05 111.189 212.701 109.808C212.386 108.568 212.915 107.658 214.389 107.285L218.887 106.146L218.396 104.207L213.65 105.409C211.153 106.041 210.393 107.801 210.896 109.787Z" fill="#902DAF"/>
<path d="M212.399 93.9583C212.738 94.1463 212.996 94.4721 213.156 94.856C213.452 95.5646 213.199 96.1212 212.432 96.442L208.682 98.0092L207.8 95.8982L206.323 96.5152L207.206 98.6262L205.405 99.379L206.176 101.224L207.977 100.472L208.52 101.771L209.996 101.154L209.453 99.8545L213.247 98.2688C214.989 97.5407 215.491 96.1691 214.769 94.4419C214.491 93.7776 214.037 93.1873 213.497 92.8925L212.399 93.9583Z" fill="#902DAF"/>
<path d="M200.452 85.9832L204.149 83.7481C205.614 82.8623 206.842 83.2231 207.562 84.4144C208.216 85.496 207.967 86.5067 206.638 87.3096L202.695 89.6937L203.73 91.4052L207.906 88.8804C210.11 87.5476 210.367 85.6534 209.233 83.7776C208.662 82.8329 207.785 82.1855 206.783 82.0434L207.714 81.4805L206.729 79.8512L199.417 84.2717L200.452 85.9832Z" fill="#902DAF"/>
<path d="M195.47 77.1796L194.509 77.9756L195.723 79.442L202.303 73.9924L201.028 72.452L197.836 75.0952C196.493 76.2076 195.191 76.0397 194.221 74.869C194.129 74.7581 194.05 74.637 193.962 74.481L192.496 75.6955C193.404 76.7922 194.412 77.3074 195.47 77.1796Z" fill="#902DAF"/>
<path d="M185.769 63.1151C183.974 65.0938 184.152 67.6111 186.001 69.2884C187.885 70.998 190.497 70.9052 192.206 69.0213C193.916 67.1374 193.778 64.5275 191.657 62.6029C190.567 61.6137 189.356 61.1627 188.174 61.322L188.14 62.9548C189.01 62.9012 189.771 63.1815 190.482 63.8266C191.584 64.8265 191.816 66.1179 191.155 67.2033L186.191 62.6982C186.05 62.8296 185.877 62.9966 185.769 63.1151ZM187.076 68.1035C186.104 67.2219 185.975 65.9595 186.685 64.9396L190.275 68.1975C189.294 68.9927 188.036 68.9745 187.076 68.1035Z" fill="#902DAF"/>
<path d="M165.404 52.5402C164.423 52.5686 163.529 53.0692 163.013 54.0995C162.219 55.6878 162.998 57.348 165.402 58.5507L170.096 60.8988L175.107 50.8825L170.127 48.3912C167.552 47.1026 165.705 47.4313 164.846 49.1484C164.195 50.4505 164.502 51.6598 165.404 52.5402ZM166.333 57.1914C165.045 56.5471 164.544 55.7241 165.01 54.794C165.468 53.8783 166.427 53.7855 167.714 54.4298L170.347 55.747L168.966 58.5087L166.333 57.1914ZM169.511 49.908L172.516 51.4113L171.07 54.3018L168.065 52.7984C166.663 52.0968 166.127 51.2738 166.628 50.2722C167.129 49.2706 168.109 49.2064 169.511 49.908Z" fill="#902DAF"/>
<path d="M151.56 50.6097L152.785 46.467C153.271 44.8253 154.421 44.2645 155.756 44.6593C156.968 45.0178 157.465 45.9323 157.025 47.4206L155.718 51.8394L157.636 52.4066L159.02 47.727C159.75 45.2567 158.664 43.684 156.562 43.0623C155.503 42.7492 154.418 42.8623 153.582 43.4326L153.891 42.3892L152.065 41.8492L149.642 50.0424L151.56 50.6097Z" fill="#902DAF"/>
<path d="M142.398 50.2097C141.654 50.0966 141.05 50.5549 140.944 51.2509C140.846 51.8995 141.309 52.4717 142.037 52.5824C142.764 52.6932 143.381 52.253 143.483 51.5887C143.584 50.9243 143.125 50.3205 142.398 50.2097ZM144.892 40.5227L142.914 40.2218L141.629 48.6685L143.606 48.9694L144.892 40.5227Z" fill="#902DAF"/>
<path d="M135.53 39.514L133.533 39.4167L132.955 51.2746L134.953 51.3719L135.53 39.514Z" fill="#902DAF"/>
<path d="M120.667 51.788L120.282 47.4209C121.021 48.1429 122.025 48.4239 123.125 48.327C125.595 48.1094 127.278 46.2425 127.045 43.5968C126.812 40.951 124.827 39.3911 122.357 39.6087C121.193 39.7112 120.24 40.1967 119.643 41.0686L119.546 39.9688L117.633 40.1373L118.675 51.9635L120.667 51.788ZM122.268 41.3352C123.703 41.2089 124.894 42.148 125.037 43.7737C125.18 45.3994 124.171 46.5322 122.737 46.6586C121.303 46.7849 120.112 45.8458 119.968 44.2201C119.825 42.5944 120.834 41.4616 122.268 41.3352Z" fill="#902DAF"/>
<path d="M103.722 47.5975C104.391 50.1846 106.593 51.4169 109.01 50.7926C111.473 50.1563 112.829 47.922 112.193 45.4589C111.556 42.9957 109.299 41.6785 106.526 42.3948C105.101 42.763 104.059 43.5279 103.544 44.603L104.89 45.5277C105.322 44.7715 105.974 44.289 106.904 44.0489C108.345 43.6767 109.552 44.1912 110.096 45.3395L103.605 47.0163C103.638 47.2062 103.682 47.4426 103.722 47.5975ZM108.609 49.2434C107.339 49.5716 106.213 48.9867 105.75 47.8339L110.444 46.6213C110.57 47.8776 109.864 48.9193 108.609 49.2434Z" fill="#902DAF"/>
<path d="M97.5718 53.2739L98.0521 54.4258L99.8095 53.6931L96.5215 45.8071L94.6755 46.5767L96.2703 50.4016C96.9414 52.0113 96.4001 53.2077 94.9972 53.7927C94.8643 53.8481 94.7252 53.8887 94.5504 53.9269L95.2831 55.6843C96.5975 55.1363 97.385 54.3226 97.5718 53.2739Z" fill="#902DAF"/>
</svg>
